<?xml version="1.0" encoding="UTF-8" standalone="no"?>
<svg
   xmlns:osb="http://www.openswatchbook.org/uri/2009/osb"
   xmlns:dc="http://purl.org/dc/elements/1.1/"
   xmlns:cc="http://creativecommons.org/ns#"
   xmlns:rdf="http://www.w3.org/1999/02/22-rdf-syntax-ns#"
   xmlns:svg="http://www.w3.org/2000/svg"
   xmlns="http://www.w3.org/2000/svg"
   viewBox="-0.963 -0.369 104.76 103.68"
   version="1.1"
   width="108"
   height="108"
   xml:space="preserve"
   id="svg2852"><metadata
     id="metadata3780"><rdf:RDF><cc:Work
         rdf:about=""><dc:format>image/svg+xml</dc:format><dc:type
           rdf:resource="http://purl.org/dc/dcmitype/StillImage" /><dc:title></dc:title><cc:license
           rdf:resource="http://creativecommons.org/publicdomain/zero/1.0/" /></cc:Work><cc:License
         rdf:about="http://creativecommons.org/publicdomain/zero/1.0/"><cc:permits
           rdf:resource="http://creativecommons.org/ns#Reproduction" /><cc:permits
           rdf:resource="http://creativecommons.org/ns#Distribution" /><cc:permits
           rdf:resource="http://creativecommons.org/ns#DerivativeWorks" /></cc:License></rdf:RDF></metadata><defs
     id="defs3778"><linearGradient
       osb:paint="solid"
       id="linearGradient4540"><stop
         id="stop4538"
         offset="0"
         style="stop-color:#ff5d00;stop-opacity:1;" /></linearGradient></defs><g
     transform="matrix(0.36000995,0,0,0.36000995,16.843689,16.867922)"
     id="g5101"><polygon
       id="polygon2856-3"
       transform="matrix(0.71389501,0.71389501,-0.71389501,0.71389501,95.641678,-40.700974)"
       points="89.153,83.52 0,70.56 83.926,102.66 70.04,191.18 103.13,107.66 192.15,120.59 108.36,88.52 122.24,0 "
       style="fill:#ccffcc;fill-opacity:1;fill-rule:evenodd" /><polygon
       id="polygon2856"
       transform="matrix(1.0096,0,0,1.0096,-0.963,-0.39066)"
       points="122.24,0 89.153,83.52 0,70.56 83.926,102.66 70.04,191.18 103.13,107.66 192.15,120.59 108.36,88.52 "
       style="fill:#33cccc;fill-rule:evenodd" /><path
       style="fill:#ffcc00;fill-rule:evenodd"
       id="path2860"
       d="m 45.857,77.653 c 4.111,-8.933 11.101,-16.568 20.08,-21.934 3.207,-1.917 6.633,-3.523 10.22,-4.791 8.617,-3.046 17.961,-4.072 27.143,-2.979 l 8.11,-20.453 C 73.589,20.309 35.968,40.536 24.02,74.477 Z m 7.777,48.867 C 51.24,123.84 49.171,120.94 47.46,117.86 42.238,108.48 40.543,97.839 42.628,87.522 L 22.398,79.784 C 12.987,115.97 35.79,152.64 74.345,163.34 L 77.7,141.95 C 68.238,138.9 59.908,133.56 53.634,126.52 Z m 27.127,38.32 c 37.899,7.25 75.619,-13.03 87.529,-47.07 l -21.82,-3.17 c -4.11,8.98 -11.12,16.65 -20.14,22.04 -3.2,1.92 -6.62,3.52 -10.2,4.78 -8.66,3.06 -18.045,4.09 -27.268,2.97 z M 169.89,112.5 C 179.26,76.306 156.42,39.649 117.84,28.996 l -3.35,21.386 c 9.45,3.031 17.77,8.342 24.05,15.346 2.41,2.678 4.48,5.577 6.21,8.647 5.26,9.388 6.98,20.046 4.91,30.385 z" /></g><flowRoot
     transform="matrix(0.97,0,0,0.97,-0.963,-90.609)"
     style="font-style:normal;font-weight:normal;font-size:40px;line-height:125%;font-family:sans-serif;letter-spacing:0px;word-spacing:0px;fill:#000000;fill-opacity:1;stroke:none;stroke-width:1px;stroke-linecap:butt;stroke-linejoin:miter;stroke-opacity:1"
     id="flowRoot5072"
     xml:space="preserve"><flowRegion
       id="flowRegion5074"><rect
         y="-77.118645"
         x="-98.305084"
         height="383.05084"
         width="411.01694"
         id="rect5076" /></flowRegion><flowPara
       id="flowPara5078" /></flowRoot></svg>